<svg xmlns="http://www.w3.org/2000/svg" xmlns:xlink="http://www.w3.org/1999/xlink" width="20" height="15" viewBox="0 0 20 15">
  <defs>
    <clipPath id="clip-path">
      <rect id="Rectangle_9" data-name="Rectangle 9" width="20" height="15" transform="translate(-0.452 0.467)" fill="#dadcff"/>
    </clipPath>
  </defs>
  <g id="Discord-Logo-Black" transform="translate(0.452 -0.467)" clip-path="url(#clip-path)">
    <path id="Path_8" data-name="Path 8" d="M16.972,1.678A16.532,16.532,0,0,0,12.891.413a.062.062,0,0,0-.066.031,11.516,11.516,0,0,0-.508,1.044,15.262,15.262,0,0,0-4.583,0A10.562,10.562,0,0,0,7.218.444.064.064,0,0,0,7.152.413,16.486,16.486,0,0,0,3.071,1.678a.058.058,0,0,0-.027.023A16.92,16.92,0,0,0,.083,13.113a.069.069,0,0,0,.026.047A16.625,16.625,0,0,0,5.115,15.69a.065.065,0,0,0,.07-.023A11.882,11.882,0,0,0,6.209,14a.063.063,0,0,0-.035-.088,10.948,10.948,0,0,1-1.564-.745.064.064,0,0,1-.006-.107c.105-.079.21-.161.311-.243a.062.062,0,0,1,.065-.009,11.856,11.856,0,0,0,10.075,0,.062.062,0,0,1,.066.008c.1.083.205.165.311.244a.064.064,0,0,1-.006.107,10.274,10.274,0,0,1-1.565.745.064.064,0,0,0-.034.089,13.341,13.341,0,0,0,1.023,1.665.064.064,0,0,0,.07.024,16.57,16.57,0,0,0,5.014-2.531.064.064,0,0,0,.026-.046A16.809,16.809,0,0,0,17,1.7.051.051,0,0,0,16.972,1.678ZM6.7,10.835A1.927,1.927,0,0,1,4.9,8.814,1.916,1.916,0,0,1,6.7,6.794,1.906,1.906,0,0,1,8.5,8.814,1.916,1.916,0,0,1,6.7,10.835Zm6.662,0a1.927,1.927,0,0,1-1.8-2.021,1.916,1.916,0,0,1,1.8-2.021,1.906,1.906,0,0,1,1.8,2.021A1.911,1.911,0,0,1,13.361,10.835Z" transform="translate(-0.05 -0.244)" fill="#dadcff"/>
  </g>
</svg>